<?xml version="1.0" encoding="utf-8"?>
<!-- Generator: Adobe Illustrator 16.0.0, SVG Export Plug-In . SVG Version: 6.00 Build 0)  -->
<!DOCTYPE svg PUBLIC "-//W3C//DTD SVG 1.1//EN" "http://www.w3.org/Graphics/SVG/1.1/DTD/svg11.dtd">
<svg version="1.1" id="splash-circle" xmlns="http://www.w3.org/2000/svg" xmlns:xlink="http://www.w3.org/1999/xlink" x="0px"
	 y="0px" width="348px" height="280px" viewBox="118.5 135.5 348 280" enable-background="new 118.5 135.5 348 280"
	 xml:space="preserve">
<path id="hair" fill="#603813" d="M456,363c-28.884-34.135-39.539-71.004-43.451-92.308c2.881,0.765,4.509,1.147,4.509,1.147
	s19.413-57.308-31.324-103.367c-14.705-13.347-75.124-34.16-96.967-15.437c-22.937-20.41-84.444-2.326-96.444,12.468
	c-47.561,58.642-27.64,102.417-27.275,102.338c-0.009,0.051-0.016,0.092-0.025,0.143l0.19-0.012c0.01-0.057,0.021-0.117,0.031-0.173
	c9.029-1.963-0.031,0.173-0.031,0.173C162.195,284.893,149.039,346.465,126,369c-14.77,14.447,69.199,34.855,162,38
	C351.512,409.152,480.006,391.371,456,363z"/>
<path id="face" fill="#FFDAA9" d="M289.606,201.149c-27.088,44.749-116.446,64.94-124.53,66.687
	c-0.503,4.567-0.77,9.205-0.77,13.906c0,69.392,56.251,125.643,125.644,125.643s125.644-56.251,125.644-125.643
	c0-3.492-0.149-6.95-0.429-10.37C401.491,267.905,317.129,245.005,289.606,201.149z"/>
<path id="mouth" fill="#FFFFFF" d="M219.78,347.921c22.995,1.095,41.253-1.315,69.802-0.823c31.76,0.549,55.415,1.164,67.342-0.82
	c3.285-0.548-30.926,40.516-68.16,40.516C244.911,386.793,219.78,347.921,219.78,347.921z"/>
<circle id="left-eye" fill="#C69C6D" cx="237.975" cy="292.754" r="10.676"/>
<circle id="right-eye" fill="#C69C6D" cx="336.814" cy="292.754" r="10.676"/>
</svg>
