<?xml version="1.0" encoding="utf-8"?>
<!-- Generator: Adobe Illustrator 16.0.0, SVG Export Plug-In . SVG Version: 6.00 Build 0)  -->
<!DOCTYPE svg PUBLIC "-//W3C//DTD SVG 1.1//EN" "http://www.w3.org/Graphics/SVG/1.1/DTD/svg11.dtd">
<svg version="1.1" id="Layer_1" xmlns="http://www.w3.org/2000/svg" xmlns:xlink="http://www.w3.org/1999/xlink" x="0px" y="0px"
	 width="100px" height="100px" viewBox="0 0 100 100" enable-background="new 0 0 100 100" xml:space="preserve">
<path id="cake" d="M85.017,43.367c0.681-0.822,0.341-2.118-0.726-2.418c-8.903-2.51-17.918-4.437-26.725-7.295
	c-4.58-1.485-9.119-3.019-13.811-4.121c-3.641-0.855-8.027-0.086-11.221-2.17c-0.646-0.42-1.707-0.172-2.051,0.539
	c-0.395,0.812-0.822,1.594-1.258,2.369c-0.279,0.106-0.529,0.321-0.705,0.685c-3.115,6.495-8.699,11.221-14.139,15.776
	c-0.771-0.592-2.077-0.5-2.365,0.717c-0.878,3.707-1.174,8.09-0.191,11.809c0.746,2.818,7.059,4.154,9.33,4.727
	c7.002,1.767,13.115,3.392,19.615,6.777c3.721,1.938,7.735,5.047,11.993,5.569c4.749,0.583,8.99-3.419,12.521-6.046
	c4.621-3.439,9.668-4.291,14.916-6.327C88.455,60.75,85.867,50.525,85.017,43.367z M26.129,39.855
	c0.777,0.539,2.021,0.414,2.299-0.769c0.729-3.112,2.496-5.646,3.984-8.394c2.105,0.931,4.324,1.045,6.726,1.15
	c4.826,0.213,9.72,2.105,14.267,3.592c9.205,3.004,18.543,5.228,27.855,7.789c-0.971,1.284-1.863,2.625-2.936,3.861
	c-2.056,2.375-4.621,4.331-7.069,6.275C68.767,55.339,66.259,57.259,64,59.5c-2.823,2.801-4.414,5.252-8.93,3.689
	c-12.694-4.396-25.701-9.254-37.961-14.851C20.263,45.688,23.423,42.951,26.129,39.855z M82.844,55.402
	c-0.049,1.447-0.971,3.012-0.902,4.422c0.032,0.695-5.375,2.246-6.162,2.492c-3.361,1.049-6.574,1.809-9.594,3.676
	c-3.77,2.332-7.732,7.095-12.412,7.461c-3.535,0.277-8.43-3.668-11.49-5.284c-4.164-2.2-8.416-4.333-12.99-5.526
	c-4.588-1.197-9.352-1.479-13.547-3.882c-2.133-1.221-1.811-5.39-1.285-8.354c6.923,3.18,14.035,5.881,21.185,8.507
	c3.98,1.462,7.96,2.922,11.915,4.446c2.995,1.152,6.626,3.502,9.896,3.549c5.357,0.08,8.47-5.358,12.199-8.471
	c2.84-2.371,5.819-4.552,8.58-7.02c1.629-1.457,2.865-3.153,4.135-4.833C82.689,49.514,82.945,52.441,82.844,55.402z"/>
</svg>
