<?xml version="1.0" encoding="utf-8"?>
<!-- Generator: Adobe Illustrator 16.0.0, SVG Export Plug-In . SVG Version: 6.00 Build 0)  -->
<!DOCTYPE svg PUBLIC "-//W3C//DTD SVG 1.1//EN" "http://www.w3.org/Graphics/SVG/1.1/DTD/svg11.dtd">
<svg version="1.1" xmlns="http://www.w3.org/2000/svg" xmlns:xlink="http://www.w3.org/1999/xlink" x="0px" y="0px" width="100px"
	 height="100px" viewBox="118.5 135.5 100 100" enable-background="new 118.5 135.5 100 100" xml:space="preserve">
<path id="cake" d="M204.882,179.32c0.68-0.822,0.34-2.118-0.726-2.418c-8.903-2.51-17.918-4.436-26.724-7.294
	c-4.58-1.486-9.119-3.019-13.811-4.122c-3.64-0.855-8.027-0.086-11.22-2.169c-0.646-0.421-1.707-0.172-2.052,0.539
	c-0.394,0.811-0.822,1.593-1.257,2.368c-0.279,0.107-0.53,0.322-0.705,0.685c-3.116,6.496-8.699,11.221-14.139,15.776
	c-0.771-0.591-2.077-0.499-2.365,0.717c-0.878,3.707-1.174,8.09-0.191,11.809c0.745,2.818,7.058,4.154,9.33,4.727
	c7.002,1.766,13.115,3.391,19.615,6.777c3.721,1.938,7.735,5.046,11.993,5.569c4.749,0.583,8.99-3.419,12.52-6.046
	c4.622-3.439,9.669-4.291,14.916-6.327C208.321,196.703,205.733,186.478,204.882,179.32z M145.994,175.809
	c0.778,0.538,2.022,0.414,2.299-0.769c0.729-3.112,2.496-5.646,3.985-8.394c2.105,0.931,4.323,1.045,6.725,1.151
	c4.826,0.213,9.719,2.106,14.267,3.591c9.204,3.004,18.543,5.228,27.855,7.789c-0.971,1.285-1.864,2.625-2.935,3.862
	c-2.056,2.375-4.622,4.331-7.07,6.276c-2.488,1.977-4.996,3.897-7.255,6.138c-2.823,2.801-4.414,5.252-8.929,3.689
	c-12.695-4.396-25.701-9.253-37.962-14.85C140.128,181.64,143.288,178.905,145.994,175.809z M202.709,191.356
	c-0.049,1.447-0.97,3.011-0.903,4.422c0.033,0.694-5.374,2.246-6.162,2.492c-3.361,1.048-6.574,1.808-9.593,3.675
	c-3.77,2.332-7.732,7.095-12.412,7.461c-3.535,0.277-8.43-3.667-11.49-5.284c-4.164-2.2-8.417-4.333-12.991-5.526
	c-4.588-1.198-9.351-1.479-13.547-3.882c-2.132-1.221-1.81-5.39-1.285-8.354c6.923,3.179,14.035,5.88,21.185,8.506
	c3.98,1.462,7.959,2.922,11.915,4.446c2.995,1.153,6.626,3.502,9.897,3.55c5.357,0.08,8.469-5.359,12.199-8.472
	c2.84-2.37,5.819-4.551,8.58-7.019c1.629-1.457,2.865-3.153,4.134-4.833C202.554,185.467,202.811,188.395,202.709,191.356z"/>
</svg>
