<?xml version="1.0" encoding="utf-8"?>
<!-- Generator: Adobe Illustrator 16.0.0, SVG Export Plug-In . SVG Version: 6.00 Build 0)  -->
<!DOCTYPE svg PUBLIC "-//W3C//DTD SVG 1.1//EN" "http://www.w3.org/Graphics/SVG/1.1/DTD/svg11.dtd">
<svg version="1.1" xmlns="http://www.w3.org/2000/svg" xmlns:xlink="http://www.w3.org/1999/xlink" x="0px" y="0px" width="100px"
	 height="100px" viewBox="118.5 135.5 100 100" enable-background="new 118.5 135.5 100 100" xml:space="preserve">
<path id="coffee" d="M195.946,186.965c-1.362-6.335-8.921-8.479-15.184-7.381c-0.174-0.834-0.37-1.654-0.59-2.459
	c0.454-0.309,0.716-0.849,0.474-1.54c-2.109-5.996-8.151-6.183-13.824-5.603c-0.125-0.396-0.266-0.791-0.438-1.182
	c-1.373-3.119-4.474-5.275-4.419-8.855c0.077-5.038,2.584-10.19,5.011-14.466c0.956-1.686-1.636-3.197-2.591-1.515
	c-1.591,2.806-2.966,5.74-3.941,8.791c-0.572-0.875-1.936-1.197-2.48-0.003c-0.748,1.641-1.598,3.43-2.211,5.276
	c-0.254-0.002-0.525,0.074-0.799,0.269c-2.58,1.831-4.757,3.935-4.539,7.308c0.088,1.363,0.889,2.78,1.759,3.787
	c0.845,0.979,1.354,1.87,1.61,2.765c-1.706,0.394-3.406,0.807-5.097,1.239c-2.145,0.548-7.771,1.044-8.912,3.562
	c-0.972,2.145,0.475,3.479,2.604,4.331c-0.01,7.529-0.044,24.491-0.166,34.065c-0.009,0.678,0.466,1.341,1.101,1.532
	c8.479,2.548,17.109,4.248,25.944,4.856c4.332,0.299,11.183,2.123,14.124-2.054c1.142-1.622,0.434-4.166,0.074-5.902
	c-0.464-2.237-0.755-4.446-0.94-6.665c4.714,0.165,8.919,0.167,11.787-4.45C197.029,198.284,196.993,191.832,195.946,186.965z
	 M182.221,199.598c-0.026-4.692-0.071-9.905-0.644-14.936c1.432-0.081,2.879-0.104,4.212,0.482c1.817,0.799,1.478,4.293,1.448,5.884
	c-0.08,4.204-1.554,8.003-4.999,10.166C182.231,200.664,182.224,200.133,182.221,199.598z M176.407,174.416
	c-3.883,0.77-7.385,2.625-11.099,4.055c-0.13,0.05-0.261,0.091-0.392,0.138c1.665-1.569,2.428-3.656,2.377-5.867
	C170.845,172.442,174.397,172.679,176.407,174.416z M162.598,173.39c0.648-0.118,1.324-0.232,2.017-0.334
	c0.09,1.415-0.566,2.766-2.564,3.999c-1.003,0.619-0.83,1.825-0.168,2.441c-0.861,0.191-1.724,0.335-2.586,0.435
	c0.061-0.056,0.121-0.111,0.178-0.182C161.066,177.765,162.417,175.755,162.598,173.39z M159.391,156.927
	c-0.267,1.484-0.425,2.992-0.449,4.525c-0.042,2.806,3.159,5.918,4.775,8.901c-0.249,0.032-0.5,0.064-0.744,0.095
	c-0.265,0.033-0.528,0.084-0.793,0.121c-0.514-0.991-1.517-1.884-2.207-2.591C156.891,164.815,157.898,160.605,159.391,156.927z
	 M156.792,170.67c-0.502-1.021-1.118-1.812-1.861-2.662c-2.02-2.308-1.582-4.193-0.002-5.823c-0.024,0.669,0.009,1.337,0.125,2
	c0.309,1.754,0.784,3.517,1.961,4.918c0.627,0.747,1.126,1.42,1.495,2.062c-0.479,0.089-0.957,0.185-1.434,0.281
	C157.002,171.181,156.915,170.919,156.792,170.67z M153.813,175.228c-0.129,0.635-0.322,1.309-0.563,2.048
	c-0.604,1.844,2.294,2.628,2.893,0.798c0.349-1.067,0.771-2.313,0.988-3.571c0.448-0.094,0.896-0.19,1.344-0.283
	c0.222-0.046,0.465-0.097,0.718-0.15c-0.148,1.058-0.736,2.183-1.839,3.558c-0.71,0.885-0.257,1.99,0.48,2.435
	c-4.141,0.255-8.296-0.399-12.453-1.328c0-0.402,0-0.8,0-1.204c0.975-0.305,1.92-0.646,2.336-0.765
	C149.733,176.192,151.77,175.692,153.813,175.228z M176.577,219.221c-3.052-0.142-6.122-0.352-9.171-0.562
	c-7.524-0.519-14.954-2.14-22.182-4.256c0.13-10.725,0.154-21.275,0.158-32.254c1.896,0.391,3.753,0.567,4.712,0.688
	c5.008,0.633,9.756,0.219,14.635-1.018c4.292-1.088,8.007-3.735,12.383-4.518c0.294,1.013,0.554,2.032,0.76,3.06
	c-1.24,0.465-2.36,1.077-3.28,1.83c-1.499,1.226,0.637,3.335,2.121,2.121c0.496-0.406,1.054-0.737,1.637-1.027
	c0.858,6.546,0.426,13.308,0.683,19.938c-0.044,0.235-0.033,0.479,0.025,0.71c0.02,0.424,0.051,0.846,0.078,1.268
	c-0.053,0.281-0.036,0.578,0.054,0.852c0.184,2.429,0.497,4.833,1.05,7.194C181.111,216.979,180.959,219.424,176.577,219.221z
	 M192.436,199.536c-1.474,4.695-5.468,4.797-9.434,4.625c4.896-2.675,6.895-7.395,7.236-13.133c0.146-2.449-0.006-5.794-1.867-7.655
	c-0.126-0.126-0.257-0.241-0.391-0.35c2.594,1.028,4.688,2.951,5.285,5.727C194.021,192.266,193.497,196.155,192.436,199.536z"/>
</svg>
