<?xml version="1.0" encoding="utf-8"?>
<!-- Generator: Adobe Illustrator 16.0.0, SVG Export Plug-In . SVG Version: 6.00 Build 0)  -->
<!DOCTYPE svg PUBLIC "-//W3C//DTD SVG 1.1//EN" "http://www.w3.org/Graphics/SVG/1.1/DTD/svg11.dtd">
<svg version="1.1" xmlns="http://www.w3.org/2000/svg" xmlns:xlink="http://www.w3.org/1999/xlink" x="0px" y="0px" width="100px"
	 height="100px" viewBox="118.5 135.5 100 100" enable-background="new 118.5 135.5 100 100" xml:space="preserve">
<path id="pie" d="M202.848,179.872c0.129-1.169-0.931-1.615-1.829-1.36c-2.406-1.546-5.171-2.064-7.925-2.866
	c-5.251-1.529-10.163-4.99-15.113-7.285c-3.89-1.804-7.932-2.823-12.13-3.623c-4.437-0.845-10.422-0.359-14.127-3.089
	c-1.561-1.149-3.054,1.457-1.515,2.591c0.497,0.366,1.01,0.653,1.531,0.904c-5.894,4.75-11.007,10.317-11.564,18.234
	c-0.248,3.516,0.216,7.166,2.123,9.329c0.001,0.037-0.004,0.07-0.001,0.109c0.499,5.533,0.79,11.746,3.988,16.488
	c0.382,0.566,1.011,0.871,1.694,0.689c6.822-1.815,13.639-3.623,20.331-5.88c6.678-2.252,13.019-5.383,19.6-7.89
	c3.275-1.248,6.631-2.21,10.053-2.957c1.259-0.274,2.894-0.353,3.873-1.332C204.153,189.618,202.523,182.812,202.848,179.872z
	 M155.203,166.208c1.059,0.187,2.151,0.301,3.271,0.435c6.173,0.738,12.264,1.835,17.994,4.309c4.346,1.875,8.608,4.29,12.889,6.309
	c2.574,1.213,5.676,1.682,8.334,2.747c-3.045,0.872-6.072,1.008-9.132,1.312c-3.398,0.336-6.755,1.223-10.043,2.11
	c-7.431,2.006-14.99,3.952-22.364,6.129c-2.462,0.728-4.946,1.411-7.465,1.912c-4.874,0.97-5.454-2.916-5.532-6.915
	C142.996,176.435,149.275,170.795,155.203,166.208z M197.166,190.374c-5.753,1.173-11.208,3.325-16.604,5.59
	c-10.602,4.452-21.212,7.856-32.286,10.839c-2.053-3.664-2.475-8.123-2.832-12.308c0.759,0.153,1.604,0.2,2.567,0.092
	c7.891-0.886,16.308-3.896,23.866-6.125c5.918-1.747,11.816-3.677,17.981-4.288c3.365-0.333,6.668-0.62,9.809-1.75
	c-0.053,1.274-0.057,2.547-0.035,3.838C199.678,189.049,199.973,189.801,197.166,190.374z"/>
</svg>
