<?xml version="1.0" encoding="utf-8"?>
<!-- Generator: Adobe Illustrator 16.0.0, SVG Export Plug-In . SVG Version: 6.00 Build 0)  -->
<!DOCTYPE svg PUBLIC "-//W3C//DTD SVG 1.1//EN" "http://www.w3.org/Graphics/SVG/1.1/DTD/svg11.dtd">
<svg version="1.1" id="splash-circle" xmlns="http://www.w3.org/2000/svg" xmlns:xlink="http://www.w3.org/1999/xlink" x="0px"
	 y="0px" width="590px" height="530px" viewBox="0 0 590 530" enable-background="new 0 0 590 530" xml:space="preserve">
<polygon fill="#F7931E" points="580.989,266 531.913,286.611 575.498,317.17 523.157,326.875 559.297,365.954 506.074,364.562 
	533.533,410.167 481.624,398.298 499.857,448.319 451.047,427.021 459.962,479.519 415.655,449.97 415.416,503.222 376.725,466.621 
	367.658,519.101 335.461,476.672 318.064,527.01 293,480.012 267.936,527.01 250.541,476.673 218.343,519.102 209.276,466.622 
	170.585,503.222 170.344,449.97 126.036,479.518 134.951,427.021 86.142,448.319 104.374,398.297 52.465,410.165 79.924,364.561 
	26.702,365.952 62.843,326.874 10.501,317.169 54.087,286.611 5.011,266 54.087,245.389 10.502,214.83 62.844,205.125 
	26.703,166.045 79.926,167.439 52.467,121.833 104.376,133.701 86.144,83.679 134.952,104.979 126.038,52.481 170.345,82.031 
	170.584,28.778 209.276,65.378 218.344,12.898 250.539,55.328 267.936,4.99 293,51.988 318.064,4.99 335.461,55.328 367.655,12.898 
	376.724,65.378 415.415,28.778 415.656,82.03 459.964,52.482 451.048,104.979 499.859,83.683 481.625,133.704 533.535,121.836 
	506.076,167.442 559.298,166.048 523.157,205.127 575.499,214.832 531.913,245.389 "/>
</svg>
